<svg xmlns="http://www.w3.org/2000/svg" width="1200" height="630" viewBox="0 0 1200 630">
  <rect width="1200" height="630" fill="#0d0d0d"/>
  <rect width="600" height="4" fill="#E53935"/>
  <rect x="600" width="600" height="4" fill="#D4E157"/>
  <rect width="600" height="4" y="626" fill="#D4E157"/>
  <rect x="600" width="600" height="4" y="626" fill="#E53935"/>

  <circle cx="140" cy="315" r="60" fill="#1a1a1a" opacity="0.6"/>
  <circle cx="140" cy="315" r="44" fill="none" stroke="#E53935" stroke-width="3" opacity="0.4"/>
  <text x="140" y="323" text-anchor="middle" font-family="sans-serif" font-weight="800" font-size="28" fill="#D4E157" opacity="0.5">G</text>

  <rect x="1060" y="260" width="60" height="4" rx="2" fill="#E53935" opacity="0.3"/>
  <rect x="1060" y="274" width="40" height="4" rx="2" fill="#D4E157" opacity="0.3"/>
  <rect x="1060" y="288" width="50" height="4" rx="2" fill="#E53935" opacity="0.3"/>

  <text x="600" y="160" text-anchor="middle" font-family="sans-serif" font-weight="600" font-size="14" fill="#E53935" letter-spacing="3">ARTICLE</text>

  <text x="600" y="250" text-anchor="middle" font-family="sans-serif" font-weight="800" font-size="52" fill="#ffffff">Your Google</text>
  <text x="600" y="318" text-anchor="middle" font-family="sans-serif" font-weight="800" font-size="52" fill="#D4E157">Business Profile</text>
  <text x="600" y="386" text-anchor="middle" font-family="sans-serif" font-weight="800" font-size="52" fill="#ffffff">Is Your New Homepage</text>

  <text x="600" y="448" text-anchor="middle" font-family="sans-serif" font-weight="400" font-size="20" fill="#888888">How local visibility really works in 2026.</text>

  <rect x="540" y="470" width="40" height="3" rx="1.5" fill="#E53935"/>
  <rect x="588" y="470" width="20" height="3" rx="1.5" fill="#D4E157"/>
  <rect x="616" y="470" width="40" height="3" rx="1.5" fill="#E53935"/>

  <text x="600" y="565" text-anchor="middle" font-family="sans-serif" font-weight="700" font-size="16" fill="#D4E157" letter-spacing="1.5">WebKreatives</text>
  <text x="600" y="590" text-anchor="middle" font-family="sans-serif" font-weight="400" font-size="13" fill="#555555" letter-spacing="0.5">webkreatives.com</text>
</svg>
