<svg xmlns="http://www.w3.org/2000/svg" width="1200" height="630" viewBox="0 0 1200 630">
  <rect width="1200" height="630" fill="#0d0d0d"/>
  <rect width="600" height="4" fill="#E53935"/>
  <rect x="600" width="600" height="4" fill="#D4E157"/>
  <rect width="600" height="4" y="626" fill="#D4E157"/>
  <rect x="600" width="600" height="4" y="626" fill="#E53935"/>

  <rect x="96" y="255" width="88" height="110" rx="6" fill="#1a1a1a" opacity="0.6"/>
  <rect x="110" y="278" width="60" height="4" rx="2" fill="#D4E157" opacity="0.3"/>
  <rect x="110" y="292" width="40" height="4" rx="2" fill="#555" opacity="0.3"/>
  <rect x="110" y="306" width="50" height="4" rx="2" fill="#555" opacity="0.3"/>

  <circle cx="1100" cy="315" r="55" fill="#1a1a1a" opacity="0.5"/>
  <text x="1100" y="323" text-anchor="middle" font-family="sans-serif" font-weight="800" font-size="24" fill="#E53935" opacity="0.4">✕</text>

  <text x="600" y="160" text-anchor="middle" font-family="sans-serif" font-weight="600" font-size="14" fill="#E53935" letter-spacing="3">ARTICLE</text>

  <text x="600" y="248" text-anchor="middle" font-family="sans-serif" font-weight="800" font-size="52" fill="#ffffff">Why a</text>
  <text x="600" y="316" text-anchor="middle" font-family="sans-serif" font-weight="800" font-size="52" fill="#D4E157">One-Page Website</text>
  <text x="600" y="384" text-anchor="middle" font-family="sans-serif" font-weight="800" font-size="52" fill="#ffffff">Is Not Enough</text>

  <text x="600" y="448" text-anchor="middle" font-family="sans-serif" font-weight="400" font-size="20" fill="#888888">More trust, more visibility, more leads.</text>

  <rect x="540" y="470" width="40" height="3" rx="1.5" fill="#E53935"/>
  <rect x="588" y="470" width="20" height="3" rx="1.5" fill="#D4E157"/>
  <rect x="616" y="470" width="40" height="3" rx="1.5" fill="#E53935"/>

  <text x="600" y="565" text-anchor="middle" font-family="sans-serif" font-weight="700" font-size="16" fill="#D4E157" letter-spacing="1.5">WebKreatives</text>
  <text x="600" y="590" text-anchor="middle" font-family="sans-serif" font-weight="400" font-size="13" fill="#555555" letter-spacing="0.5">webkreatives.com</text>
</svg>
